<?xml version="1.0"?>
<!-- Created by MetaPost 2.00 on 2020.05.11:2247 -->
<svg version="1.1" xmlns="http://www.w3.org/2000/svg" xmlns:xlink="http://www.w3.org/1999/xlink" width="64.276764" height="48.754654" viewBox="0 0 64.276764 48.754654">
<!-- Original BoundingBox: -32.377060 -10.489700 31.899704 38.264954 -->
  <defs>
    <g transform="scale(0.009963,0.009963)" id="GLYPHcmmi10_97">
      <path style="fill-rule: evenodd;" d="M373.000000 -378.000000C355.000000 -415.000000,326.000000 -442.000000,281.000000 -442.000000C164.000000 -442.000000,40.000000 -295.000000,40.000000 -149.000000C40.000000 -55.000000,95.000000 11.000000,173.000000 11.000000C193.000000 11.000000,243.000000 7.000000,303.000000 -64.000000C311.000000 -22.000000,346.000000 11.000000,394.000000 11.000000C429.000000 11.000000,452.000000 -12.000000,468.000000 -44.000000C485.000000 -80.000000,498.000000 -141.000000,498.000000 -143.000000C498.000000 -153.000000,489.000000 -153.000000,486.000000 -153.000000C476.000000 -153.000000,475.000000 -149.000000,472.000000 -135.000000C455.000000 -70.000000,437.000000 -11.000000,396.000000 -11.000000C369.000000 -11.000000,366.000000 -37.000000,366.000000 -57.000000C366.000000 -79.000000,368.000000 -87.000000,379.000000 -131.000000C390.000000 -173.000000,392.000000 -183.000000,401.000000 -221.000000L437.000000 -361.000000C444.000000 -389.000000,444.000000 -391.000000,444.000000 -395.000000C444.000000 -412.000000,432.000000 -422.000000,415.000000 -422.000000C391.000000 -422.000000,376.000000 -400.000000,373.000000 -378.000000M308.000000 -119.000000C303.000000 -101.000000,303.000000 -99.000000,288.000000 -82.000000C244.000000 -27.000000,203.000000 -11.000000,175.000000 -11.000000C125.000000 -11.000000,111.000000 -66.000000,111.000000 -105.000000C111.000000 -155.000000,143.000000 -278.000000,166.000000 -324.000000C197.000000 -383.000000,242.000000 -420.000000,282.000000 -420.000000C347.000000 -420.000000,361.000000 -338.000000,361.000000 -332.000000C361.000000 -326.000000,359.000000 -320.000000,358.000000 -315.000000"></path>
    </g>
    <g transform="scale(0.009963,0.009963)" id="GLYPHcmmi10_98">
      <path style="fill-rule: evenodd;" d="M239.000000 -683.000000C239.000000 -684.000000,239.000000 -694.000000,226.000000 -694.000000C203.000000 -694.000000,130.000000 -686.000000,104.000000 -684.000000C96.000000 -683.000000,85.000000 -682.000000,85.000000 -664.000000C85.000000 -652.000000,94.000000 -652.000000,109.000000 -652.000000C157.000000 -652.000000,159.000000 -645.000000,159.000000 -635.000000C159.000000 -628.000000,150.000000 -594.000000,145.000000 -573.000000L63.000000 -247.000000C51.000000 -197.000000,47.000000 -181.000000,47.000000 -146.000000C47.000000 -51.000000,100.000000 11.000000,174.000000 11.000000C292.000000 11.000000,415.000000 -138.000000,415.000000 -282.000000C415.000000 -373.000000,362.000000 -442.000000,282.000000 -442.000000C236.000000 -442.000000,195.000000 -413.000000,165.000000 -382.000000M145.000000 -305.000000C151.000000 -327.000000,151.000000 -329.000000,160.000000 -340.000000C209.000000 -405.000000,254.000000 -420.000000,280.000000 -420.000000C316.000000 -420.000000,343.000000 -390.000000,343.000000 -326.000000C343.000000 -267.000000,310.000000 -152.000000,292.000000 -114.000000C259.000000 -47.000000,213.000000 -11.000000,174.000000 -11.000000C140.000000 -11.000000,107.000000 -38.000000,107.000000 -112.000000C107.000000 -131.000000,107.000000 -150.000000,123.000000 -213.000000"></path>
    </g>
    <g transform="scale(0.009963,0.009963)" id="GLYPHcmmi10_99">
      <path style="fill-rule: evenodd;" d="M396.000000 -380.000000C380.000000 -380.000000,366.000000 -380.000000,352.000000 -366.000000C336.000000 -351.000000,334.000000 -334.000000,334.000000 -327.000000C334.000000 -303.000000,352.000000 -292.000000,371.000000 -292.000000C400.000000 -292.000000,427.000000 -316.000000,427.000000 -356.000000C427.000000 -405.000000,380.000000 -442.000000,309.000000 -442.000000C174.000000 -442.000000,41.000000 -299.000000,41.000000 -158.000000C41.000000 -68.000000,99.000000 11.000000,203.000000 11.000000C346.000000 11.000000,430.000000 -95.000000,430.000000 -107.000000C430.000000 -113.000000,424.000000 -120.000000,418.000000 -120.000000C413.000000 -120.000000,411.000000 -118.000000,405.000000 -110.000000C326.000000 -11.000000,217.000000 -11.000000,205.000000 -11.000000C142.000000 -11.000000,115.000000 -60.000000,115.000000 -120.000000C115.000000 -161.000000,135.000000 -258.000000,169.000000 -320.000000C200.000000 -377.000000,255.000000 -420.000000,310.000000 -420.000000C344.000000 -420.000000,382.000000 -407.000000,396.000000 -380.000000"></path>
    </g>
    <g transform="scale(0.006974,0.006974)" id="GLYPHcmsy7_48">
      <path style="fill-rule: evenodd;" d="M290.000000 -472.000000C298.000000 -489.000000,299.000000 -497.000000,299.000000 -504.000000C299.000000 -535.000000,271.000000 -559.000000,240.000000 -559.000000C202.000000 -559.000000,190.000000 -528.000000,185.000000 -512.000000L53.000000 -79.000000C52.000000 -77.000000,48.000000 -64.000000,48.000000 -63.000000C48.000000 -51.000000,79.000000 -41.000000,87.000000 -41.000000C94.000000 -41.000000,95.000000 -43.000000,102.000000 -58.000000"></path>
    </g>
  </defs>
  <path d="M3.653549 9.653549L3.653549 38.000000" style="stroke:rgb(0.000000%,0.000000%,0.000000%); stroke-width: 0.500000;stroke-linecap: round;stroke-linejoin: round;stroke-miterlimit: 10.000000;fill: none;"></path>
  <path d="M3.653549 9.653549L32.000000 38.000000" style="stroke:rgb(0.000000%,0.000000%,0.000000%); stroke-width: 0.500000;stroke-linecap: round;stroke-linejoin: round;stroke-miterlimit: 10.000000;fill: none;"></path>
  <path d="M3.653549 9.653549L60.346451 38.000000" style="stroke:rgb(0.000000%,0.000000%,0.000000%); stroke-width: 0.500000;stroke-linecap: round;stroke-linejoin: round;stroke-miterlimit: 10.000000;fill: none;"></path>
  <path d="M32.000000 9.653549L3.653549 38.000000" style="stroke:rgb(0.000000%,0.000000%,0.000000%); stroke-width: 0.500000;stroke-linecap: round;stroke-linejoin: round;stroke-miterlimit: 10.000000;fill: none;"></path>
  <path d="M32.000000 9.653549L32.000000 38.000000" style="stroke:rgb(0.000000%,0.000000%,0.000000%); stroke-width: 0.500000;stroke-linecap: round;stroke-linejoin: round;stroke-miterlimit: 10.000000;fill: none;"></path>
  <path d="M32.000000 9.653549L60.346451 38.000000" style="stroke:rgb(0.000000%,0.000000%,0.000000%); stroke-width: 0.500000;stroke-linecap: round;stroke-linejoin: round;stroke-miterlimit: 10.000000;fill: none;"></path>
  <path d="M60.346451 9.653549L3.653549 38.000000" style="stroke:rgb(0.000000%,0.000000%,0.000000%); stroke-width: 0.500000;stroke-linecap: round;stroke-linejoin: round;stroke-miterlimit: 10.000000;fill: none;"></path>
  <path d="M60.346451 9.653549L32.000000 38.000000" style="stroke:rgb(0.000000%,0.000000%,0.000000%); stroke-width: 0.500000;stroke-linecap: round;stroke-linejoin: round;stroke-miterlimit: 10.000000;fill: none;"></path>
  <path d="M60.346451 9.653549L60.346451 38.000000" style="stroke:rgb(0.000000%,0.000000%,0.000000%); stroke-width: 0.500000;stroke-linecap: round;stroke-linejoin: round;stroke-miterlimit: 10.000000;fill: none;"></path>
  <g transform="translate(1.020493 6.653549)" style="fill: rgb(0.000000%,0.000000%,0.000000%);">
    <use xlink:href="#GLYPHcmmi10_97"></use>
  </g>
  <path d="M3.653549 9.653549l0 0" style="stroke:rgb(0.000000%,0.000000%,0.000000%); stroke-width: 3.000000;stroke-linecap: round;stroke-linejoin: round;stroke-miterlimit: 10.000000;fill: none;"></path>
  <g transform="translate(29.862198 6.653549)" style="fill: rgb(0.000000%,0.000000%,0.000000%);">
    <use xlink:href="#GLYPHcmmi10_98"></use>
  </g>
  <path d="M32.000000 9.653549l0 0" style="stroke:rgb(0.000000%,0.000000%,0.000000%); stroke-width: 3.000000;stroke-linecap: round;stroke-linejoin: round;stroke-miterlimit: 10.000000;fill: none;"></path>
  <g transform="translate(58.190750 6.653549)" style="fill: rgb(0.000000%,0.000000%,0.000000%);">
    <use xlink:href="#GLYPHcmmi10_99"></use>
  </g>
  <path d="M60.346451 9.653549l0 0" style="stroke:rgb(0.000000%,0.000000%,0.000000%); stroke-width: 3.000000;stroke-linecap: round;stroke-linejoin: round;stroke-miterlimit: 10.000000;fill: none;"></path>
  <g transform="translate(-0.377060 48.489700)" style="fill: rgb(0.000000%,0.000000%,0.000000%);">
    <use xlink:href="#GLYPHcmmi10_97"></use>
  </g>
  <g transform="translate(4.889038 44.874298)" style="fill: rgb(0.000000%,0.000000%,0.000000%);">
    <use xlink:href="#GLYPHcmsy7_48"></use>
  </g>
  <path d="M3.653549 38.000000l0 0" style="stroke:rgb(0.000000%,0.000000%,0.000000%); stroke-width: 3.000000;stroke-linecap: round;stroke-linejoin: round;stroke-miterlimit: 10.000000;fill: none;"></path>
  <g transform="translate(28.464645 48.489700)" style="fill: rgb(0.000000%,0.000000%,0.000000%);">
    <use xlink:href="#GLYPHcmmi10_98"></use>
  </g>
  <g transform="translate(32.740250 44.874298)" style="fill: rgb(0.000000%,0.000000%,0.000000%);">
    <use xlink:href="#GLYPHcmsy7_48"></use>
  </g>
  <path d="M32.000000 38.000000l0 0" style="stroke:rgb(0.000000%,0.000000%,0.000000%); stroke-width: 3.000000;stroke-linecap: round;stroke-linejoin: round;stroke-miterlimit: 10.000000;fill: none;"></path>
  <g transform="translate(56.793198 48.489700)" style="fill: rgb(0.000000%,0.000000%,0.000000%);">
    <use xlink:href="#GLYPHcmmi10_99"></use>
  </g>
  <g transform="translate(61.104599 44.874298)" style="fill: rgb(0.000000%,0.000000%,0.000000%);">
    <use xlink:href="#GLYPHcmsy7_48"></use>
  </g>
  <path d="M60.346451 38.000000l0 0" style="stroke:rgb(0.000000%,0.000000%,0.000000%); stroke-width: 3.000000;stroke-linecap: round;stroke-linejoin: round;stroke-miterlimit: 10.000000;fill: none;"></path>
</svg>
